<?xml version="1.0" encoding="utf-8"?>
<!-- Generator: Adobe Illustrator 23.0.4, SVG Export Plug-In . SVG Version: 6.00 Build 0)  -->
<svg version="1.1" id="Ebene_1" xmlns="http://www.w3.org/2000/svg" xmlns:xlink="http://www.w3.org/1999/xlink" x="0px" y="0px"
	 viewBox="0 0 114.3 83.3" style="enable-background:new 0 0 114.3 83.3;" xml:space="preserve">
<style type="text/css">
	.st0{fill:#FFFFFF;}
</style>
<path id="XMLID_2_" class="st0" d="M58.4,61.1c5-5.2,8.1-12.1,8.1-19.8c0-15.9-13.2-28.8-29.4-28.8c-9.9,0-18.7,4.8-24,12.2L53,60.3
	c-1.1,0.9-2.3,1.7-3.6,2.4L7.6,25.4C13.3,15.1,24.3,8.3,37,8.3c18.6,0,33.6,14.8,33.6,33s-15.1,33-33.6,33c-10,0-19-4.3-25.2-11.1
	l2.8-3.2C20,66.2,28,70.1,36.9,70.1C37,70.1,49.7,70.9,58.4,61.1z"/>
<g>
	<path class="st0" d="M91.9,59.2L75.4,44.4c-0.2,1.8-0.4,3.5-0.8,5.2l14.3,12.8C90.1,61.6,91,60.5,91.9,59.2z"/>
	<path class="st0" d="M99.5,65.9c-0.9,1.3-1.9,2.4-2.9,3.2l7.2,6.2l2.9-3.2L99.5,65.9z"/>
	<path class="st0" d="M81.3,10.1c-7.2-1.9-14.5-1.2-21,1.4c1.2,0.9,2.4,1.9,3.5,2.9c1-0.3,2-0.6,3-0.8c11.7-2.3,24,2.9,30.3,13.1
		c6.5,10.5,5.5,24.4-2.3,33.9c-7.7,9.2-20.7,12.9-32,8.8h-0.1c-1.2,1.1-2.5,2-3.9,2.9c4.1,1.9,8.5,3,13.2,3h1.3
		c11.4,0,22-6.4,27.8-16.1C112.3,40.5,102.4,15.7,81.3,10.1z"/>
</g>
</svg>
